<?xml version="1.0"?>
    
<!--********* Copyright (c) 2024 Pareto Softare, LLC DBA Simplemaps.com ***************************************
************* Free for Commercial Use, full terms at  https://simplemaps.com/resources/svg-license ************
************* Attribution is appreciated! https://simplemaps.com *******************************************-->

<svg baseprofile="tiny" fill="#006400" height="1000" stroke="#ffffff" stroke-linecap="round" stroke-linejoin="round" stroke-width=".5" version="1.2" viewbox="0 0 1000 1000" width="1000" xmlns="http://www.w3.org/2000/svg">
 <g id="features">
  <path d="M139.8 115.5l0.1-2.5 1.4-4.8 2.2-3.7 6.8-4.3 1-4 1.2-2.6 4 1.6 2.8 3.1 2.2 3.8 2.5 3.3 3.8 1.8 4.1-0.4 2.3-2.1 0.9-4-0.2-5.8-1-5.9-1.2-3.7-0.2-2.8 2.2-3 1.1-0.1 3.4 1.3 1.4 0.1 1.8-1.9 0.6-2.3 0.7-1.9 2.2-0.7 6.8 3 6.7 5.8 7.1 4.3 7.8-1.4 1.9-2 1.5 0.2 1.4 0.9 2.2-0.2 2.5 0.5 1.1-0.8-0.2-1.5-0.7-1.7-0.2-1.3 0.1-2-0.6-2.6 0.2-2.3 2.3-0.8 2.2 0.7 4.2 2.7 22 8.3 6.7 0.4 7.8-4 1.1-1.5 11.1-14 7.4-3.8 3.9 1 5.9 5.5 2.8 1.1 3.4-1.8 12.4-10.5 4.7-6.5 8.5 0 2.5-0.6 5.3-3.6 4.4 0.5 0.5 8.2 4.1 2 25.6-0.2 6.8 3.2 13.3 9.9 3.1 3.3 4.2 6.3 2.3 3.5 1.6 1.4 4.5 7.1 8.3 3.3 7.4 0.9 10.8 1.4 4.2 2 3.4 4 1.1 5.5-4 12.1 3 2.3 4.6 0.2 3.1-0.9 6.4-5.4 3.4-0.5 1.5 5 0.7 6 2.2 3.5 3.5 1.1 4.7-1.1 4.4-2.6 3.3-2.8 3.4-2.2 9.5-1.2 3.5 0.5 2.2 2.5 0.3 5.8-1.3 6.4-2.3 2.8-3 1.9-3.2 3.8-1.3 4.3 0.3 4.3 2.3 2.5 4.3-0.8 3.2-3.6 2.2-4.7 2.7-3.7 4.7-0.6 3.2 2.3 1.9 4.1-0.2 4.7-3.4 3.8 5.8 12.1 2.5 2.6 4.1 2.9 2.1-0.2 0.8-2.9 0.1-5.2 1.1-5.2 0.3-1.2 3.7-11.2 4.6-2.1 6.6 0.3 18.8 7.9 14.3 0.2 7.4 1.3 5.7 3.9 1.4 2.4 0.5 2.3 0.2 2.1 0.5 2.1 3.2 7.9 0.7 8 0.4 1.9 1.3 2 3.4 3.2 1.3 2.2 4.2 7.3 6.6 7.2 4.4 3.4 2.9 2.3 6.3 2.5 7.4-1.4 9-11.8 6.5-3.2 3.6 0.1 2.8 1.1 2.5 2.4 2.4 4 1.6 4.7 1.8 10.5 1.7 4.5 2.9 2.2 8 2.5 2.1 1.5-0.7 4.1-3.1 4.4-3.8 4.1-2.5 3.4-1.9 5.3 0.1 3.4 1.9 2 7.1 2.5 2.6 2.5 0.8 3.3-2.4 3.9-6.1 7.8-1.1 9.5 0.1 10.8-2.1 11.5-5.3 9.2-5.2 7.1-2.7 7.9 2.6 12.2 0.1 0.1 1.3 2.7 0.6 1.2 3.2 9.1 1.7 3.2 3.7 2.9 2.1-1.8 2-3.2 3.4-1.6 2.9 1.6 3.7 6.4 6.3 4.2 1.4 3.2 0.9 3.7 1.7 3.2 2.8 1.6 3.2 0.7 3.2 1.4 2.7 4 1 4.8 0.1 4.4 0.7 4.3 0.6 1.1 2.1 3.5 2.8 2.5 3.1 1.5 3.3 0.3 3.3-1.1 3.5-3.4 1.5-4.2 0.9-4.6 2.1-4.7 4.1-0.5 4.1 0.3 3.9 1.4 3.4 3.1 2.8 5.2 1.9 7 0.2 7-2.4 5.2-5.1 2.7-0.7 6.6 2.1 15.8-1.2 7.4-3 3.6-4.4 1.2-5.7 0.6-0.5 0.9-0.1 0.9 0.1 0.9 0.5 1 6.3 11.8 1.7 1.9 2.3-1.9 1.8-3.8 2.3-3.5 3.9-0.3 2.7 1.8 2.4 3.2 1.4 4.1 0.2 4.6-1.5 4.1-2.5 2.8-2.2 3.3-1.6 11.2-0.9 4-0.1 0.8-0.3 3.9 1.8 3.3 1.2 0.3 5.2-0.5 1.9 1 3.2 3.8 1.7 1.5 3.4 1.2 6.7 0.6 3.1 1.1 3.4 3.4 4.8 7.9 3.7 2.7 6.5 1 6-0.6 5.9 0.8 5.8 4.9 1 2.1 1.6 5.4 1 1.7 1.8 0.1 1.9-1.3 2-0.9 2.2 1.3 0.5 2 0 6.4 0.2 2.8 0.8 2.1 2.3 4.3 0.9 2.3 0.3 5.5-1.7 18.6-0.8 3.5-1 2.7-0.7 2.8-0.2 4 0.8 3.1 2.5 6.1 0.5 2.8-2.4 6.4-4.5 0.9-3.5 0.4 0.6 6.6 2.9 3.6 9.1 3.8 0.4 0.8 1 2.8 0.7 0.7 1.3-0.5 2.5-1.6 1.2 0 1.6 1.3 1.4 1.9 2.5 5.1-1.6 2.6 9.4 7.5 3.5 4.2 2.1-1.8 3-0.6 3.4 0.6 2.7 1.8-5 9.2-5.3 5.2-9 1.6-24.3-1.4-3.4 0.7-3.6 2.1-7.6 6.8-4 0.6-4.1-4.6-0.4-2 0.1-5.8-0.3-2.7-1-2.5-4.3-6.7-10.8-10.3-2.6-4.6 0 8.4-2.3 4.3-4.1 1.6-5.8 0.1-1.3 1.9 1 7.3-1.6 4.8-2.7 2.8-3.4 1.3-3.5-0.4-3.2-1.9-2.7-3.8-2.9-6.5-2.9-2.6-2.9-1.1-6.4-1.2-3.1-1.3-1.2-2.1-0.4-2.3 0.4-2.3 1.2-2.4 1.1-2 0.4-2.1-0.4-1.9-1.1-1.9-4.8-0.7-0.2 0.1-4 2.2-3.9 4.3-8.9 13.7-2.6 0.1-3.6-5.4-4.8-10.3-2.9-1-3.6 6.1-0.7 3.6 1 6-0.1 2.7-1.4 3.8-1.1 0.5-1.4-0.5-2.5 0.9-7.4 8.3-4.6 2.8-3.4-3-0.1-3.1 1.4-2.8 1.9-2.8 1.3-2.9 0.4-3.5-0.2-25.1-1.4-6.4-3.2-4.2-0.3 0-4.1 0-18 10.2-3.9 1.5-7.3 2.7-15.3 10.4-4.2 6.5-1.3 8.4 1.7 10.9 3.6 14 0.2 4.7-1.2 5.3-1.5 4.3 0.2 4 3.5 4.7 0 0.1 6.8 6.4 5.3 5 1.1 6.5-2.4 7-4.6 7.9-7.1 8-1.6 4.7 0.5 7.2 3.7 12.9-0.4 5.8-5.2 2.5-35.7 9.4-3.6 2.4-2.2 4.3-0.2 4.9 2.9 10.2 0.8 4.9-0.3 5.9-1.4 3.8-2.6 2.6-3.9 2.3-6 1.3-1.5 1.3-0.1 1.7 0.5 2.7 0.3 3-0.7 2.8-5.4 3.2-13.7 1.4-3.3 5.5 0.6 2.2 0.9 3.2-1.3 2.4-6 1.9-3.5 2.4-2.3 2.4-4.7 7.1-1.4 3.4 1.8 2.1 3.2 1.9 2.6 2.7 1.1 4.1 0.4 4.1 0.9 4.1 2.8 3.9-5.4 2.6-1.2 1.1-0.1 0.3-1.2 2.2 0 0.6 0.4 0.6 1.3 9.9-0.9 3.5-4.3 2-13.2-0.5-15.3-4.1-14.7-1.1-10.9 8.2 0 0.1-1.8 3.4-1.4 3.7-0.4 2-5.5-6.6-1.4-2.9-0.1-9.9-0.3-0.7-0.5-0.6-0.8-1.8-3.4-6.3-4.7-3.6-11.5-6.1 2.6-3.3 3.4-3.3 3.4-2.5 2.6-0.9 6.8 0 2.9-1.4-1.3-3.8 0.4-4.7-1.8-29.5-1.7-2.7-3.6-7.1-3.2-8.9-0.6-8.5 0.9-1.6 2.8-2 0.5-1.4-0.4-1.1-1.8-3.8-0.6-2.2 0.3-2.3 0.8-2.2 0.5-2.3-0.9-2.3-1.2-2-0.5-1.8-0.4-3.3-5-14.8-0.7-4.2 0.4-2.9 2.5-10.4 0-1.6-1.3-0.8 0-1.6 0.5-1.5 1.6-1.1 1.5-4.1 0.5-1.6 3.5-10 1.2-7.3 2.3-6.9-0.6-2.6-1.2-2-1.3-1.8-3.8-6.2-0.4-2.5 2.4-1.1 2.4-0.6 0.4-1.6-0.7-5.1 0.9-2 2-1.1 2.3-0.7 2-1.1 2.4-2.4 2.8-6.1 0.3-1.1-0.2-3.6-0.8-6 0.5-2.2 2.5-0.8 0.9-1.3 1.2-9.1 1.4-1.4 1.5-0.6 0.3-0.2 1-1.7-1.5-4 2.9-1.5 1.2-2.2 0.3-2.5-0.1-9.2-0.2-2.5-0.7-0.3-0.9 0.3-0.8-0.8-2.7-5.2-0.4-2.4 0.4-11.2 0.8-2.2 1.9-1.3-1.8-4.9 1-4.3 2.1-3.7 1.3-3.2 0.1-4.1-0.5-3.2-0.2-1.2-2-8-11.5-23.2 0-5.6-8.3-14.3-3.3-8.4 0.2-2.4 0.3-3.5 0-2.3-2.2-2.9 0.2-3.6-0.1-3.4-3.5-2.4 1.8-4.5-0.1-0.7-0.6-4.5-4-11-2.8-5.1-6.3-8.1-0.2-0.3-1.9-4.9-4 2-4.5-2.1-4.8-3.1-5-0.9-0.1-4.4-2.5-2.3-5.8-3.8-6.3-7-1.9-1.4-2-0.6-0.9-0.9 1.3-2.3 0-2-8.9-4.9-2.4-3.3 2.3-0.8 0.3-1.2-0.6-1.8-0.5-2.4-0.4-0.2-2.4-8.2-5.2-6.7-2.2-3.8 0.3-3.8-4.2-7.3-2.2-2.3-5.1-1.3-1.6-1-1.6-1.3-2.1-1.4-5.6-1.3-1.6-0.8-2.6-4.4-5-11.9-2.3-2-0.4-0.5-2.9-1.9 1.6-9.3-3.6-3.2 0.6-3.6 0.8-3.1 1.1-2.3 1.7-1.4-1.5-2.9-2.6-2.4-3.1-1.8-2.8-1.2-0.3 0.2-5.3-0.2-1.1-0.6-0.9-0.7-1-0.7-1.8-0.2-2.2-1.9-1.3-4.5-1.5-8.1-0.5-0.2-2.2-0.3-0.8-0.6-0.4-1.3 0-2.8-0.3-1-0.6-1.9-0.9-3.9-0.4-1.7-0.2-0.8-6.5-2.5-5.7-5.8-13.3-17.8-4.7-8-1.9-6.7 4.7-1 0-1.9-1.1-2.2 0.3-3.3-0.6-2.5-0.1-0.5-1.1-1-3.6-2.7-0.8-1.4-0.9-2.6-2.4-4.6-2.8-4.4-2.4-2.1 7-4.3-1.6-2.6-2.2-1.1-2.5-0.8-2.1-1.6 0.2-1.9-0.4-9.4 0.2-1.4-3.7-4.4-4.7-2.7-2.2-2.7 3.6-5 0-1.3 0-0.6-1.3-0.7-4.3-3.5 2.4-2.2 1.5-2.7-0.3-2.8-2.3-2.7-2.8 1.5-1.9-4.2-2.7-3.9-5.2 2.4-0.5-0.9-0.4-1-0.3-1.2-0.2-1.3 4.2-1.9 0-2.3-5.4-3.1-4.9-4.4-3.6-5.9-1.5-7.5 0.5-1.7 2.2-2.8 0.1-1.6 0-0.2-1.1-1.6-1.9-1.5-1.7-0.8-2.6 2.1-3.8-1.3-5.6-3.4 0-1.9 4-0.3 2.3-2.3 0-2.6-7-2.7-1.6-3.3-1-3.6-2.5-2.2-1.9 1.8-2.3 3.4-2 1-0.9-5.2-1.2-2.3-8.7-8.9-2.2 1.4-4.7-5.9-3.5-1.7-8.4 1.7-4-0.9-2.3-4.7-2.2 3.4-2.2-0.5-4.7-4.1-4.7 0.1-9.8 4.7z" id="MD" name="Moldova">
  </path>
 </g>
 <g id="points">
  <circle class="45.61298697419128|26.793573429622846" cx="175.8" cy="910.3" id="0">
  </circle>
  <circle class="46.82269085532452|28.550417084773237" cx="536" cy="551.8" id="1">
  </circle>
  <circle class="48.33482070674106|29.95589200889355" cx="824.2" cy="92.2" id="2">
  </circle>
 </g>
 <g id="label_points">
  <circle class="Moldova" cx="523.2" cy="367.3" id="MD">
  </circle>
 </g>
</svg>